# xmcd
#
# Track frame offsets:
# 150
# 24170
# 43705
# 68138
# 95656
# 115261
# 136015
# 155939
# 183755
# 208468
# 233785
#
# Disc length: 3453 seconds
#
#
# Revision: 0
# Processed by: cddbd v1.5.1PL2 Copyright (c) Steve Scherf et al.
# Submitted via: FreeRIP 2.942 
#
DISCID=960d7b0b
DTITLE=Power Of The Pen - Rock The Line
DYEAR=2005
DGENRE=Rock and Roll
TTITLE0=I Can Feel The Love
TTITLE1=Nicer Than Me
TTITLE2=Rock The Line
TTITLE3=You Make My Heart Break
TTITLE4=Care To Know
TTITLE5=I Can
TTITLE6=Earth Shake
TTITLE7=Which Way
TTITLE8=What You Want
TTITLE9=Hold Back
TTITLE10=Come Back
EXTD=
EXTT0=
EXTT1=
EXTT2=
EXTT3=
EXTT4=
EXTT5=
EXTT6=
EXTT7=
EXTT8=
EXTT9=
EXTT10=
PLAYORDER=
